<svg width="139" height="49" viewBox="0 0 139 49" fill="none" xmlns="http://www.w3.org/2000/svg" class="h-[56px] w-fit"><path d="M44.536 21.688V34H41.56V21.688H44.536ZM44.944 18.1C44.944 18.356 44.892 18.596 44.788 18.82C44.684 19.044 44.544 19.24 44.368 19.408C44.2 19.576 44 19.712 43.768 19.816C43.536 19.912 43.288 19.96 43.024 19.96C42.768 19.96 42.524 19.912 42.292 19.816C42.068 19.712 41.872 19.576 41.704 19.408C41.536 19.24 41.4 19.044 41.296 18.82C41.2 18.596 41.152 18.356 41.152 18.1C41.152 17.836 41.2 17.588 41.296 17.356C41.4 17.124 41.536 16.924 41.704 16.756C41.872 16.588 42.068 16.456 42.292 16.36C42.524 16.256 42.768 16.204 43.024 16.204C43.288 16.204 43.536 16.256 43.768 16.36C44 16.456 44.2 16.588 44.368 16.756C44.544 16.924 44.684 17.124 44.788 17.356C44.892 17.588 44.944 17.836 44.944 18.1ZM50.5218 30.808C50.8578 31.216 51.2218 31.504 51.6138 31.672C52.0138 31.84 52.4458 31.924 52.9098 31.924C53.3578 31.924 53.7618 31.84 54.1218 31.672C54.4818 31.504 54.7858 31.248 55.0338 30.904C55.2898 30.56 55.4858 30.128 55.6218 29.608C55.7578 29.08 55.8258 28.46 55.8258 27.748C55.8258 27.028 55.7658 26.42 55.6458 25.924C55.5338 25.42 55.3698 25.012 55.1538 24.7C54.9378 24.388 54.6738 24.16 54.3618 24.016C54.0578 23.872 53.7098 23.8 53.3178 23.8C52.7018 23.8 52.1778 23.932 51.7458 24.196C51.3138 24.452 50.9058 24.816 50.5218 25.288V30.808ZM50.3658 23.368C50.8698 22.8 51.4418 22.34 52.0818 21.988C52.7218 21.636 53.4738 21.46 54.3378 21.46C55.0098 21.46 55.6218 21.6 56.1738 21.88C56.7338 22.16 57.2138 22.568 57.6138 23.104C58.0218 23.632 58.3338 24.288 58.5498 25.072C58.7738 25.848 58.8858 26.74 58.8858 27.748C58.8858 28.668 58.7618 29.52 58.5138 30.304C58.2658 31.088 57.9098 31.768 57.4458 32.344C56.9898 32.92 56.4338 33.372 55.7778 33.7C55.1298 34.02 54.4018 34.18 53.5938 34.18C52.9058 34.18 52.3178 34.076 51.8298 33.868C51.3418 33.652 50.9058 33.356 50.5218 32.98V38.02H47.5578V21.688H49.3698C49.7538 21.688 50.0058 21.868 50.1258 22.228L50.3658 23.368ZM63.9944 23.824C64.3784 23.088 64.8344 22.512 65.3624 22.096C65.8904 21.672 66.5144 21.46 67.2344 21.46C67.8024 21.46 68.2584 21.584 68.6024 21.832L68.4104 24.052C68.3704 24.196 68.3104 24.3 68.2304 24.364C68.1584 24.42 68.0584 24.448 67.9304 24.448C67.8104 24.448 67.6304 24.428 67.3904 24.388C67.1584 24.348 66.9304 24.328 66.7064 24.328C66.3784 24.328 66.0864 24.376 65.8304 24.472C65.5744 24.568 65.3424 24.708 65.1344 24.892C64.9344 25.068 64.7544 25.284 64.5944 25.54C64.4424 25.796 64.2984 26.088 64.1624 26.416V34H61.1984V21.688H62.9384C63.2424 21.688 63.4544 21.744 63.5744 21.856C63.6944 21.96 63.7744 22.152 63.8144 22.432L63.9944 23.824ZM77.7319 26.428C77.7319 26.044 77.6759 25.684 77.5639 25.348C77.4599 25.004 77.2999 24.704 77.0839 24.448C76.8679 24.192 76.5919 23.992 76.2559 23.848C75.9279 23.696 75.5439 23.62 75.1039 23.62C74.2479 23.62 73.5719 23.864 73.0759 24.352C72.5879 24.84 72.2759 25.532 72.1399 26.428H77.7319ZM72.0799 28.216C72.1279 28.848 72.2399 29.396 72.4159 29.86C72.5919 30.316 72.8239 30.696 73.1119 31C73.3999 31.296 73.7399 31.52 74.1319 31.672C74.5319 31.816 74.9719 31.888 75.4519 31.888C75.9319 31.888 76.3439 31.832 76.6879 31.72C77.0399 31.608 77.3439 31.484 77.5999 31.348C77.8639 31.212 78.0919 31.088 78.2839 30.976C78.4839 30.864 78.6759 30.808 78.8599 30.808C79.1079 30.808 79.2919 30.9 79.4119 31.084L80.2639 32.164C79.9359 32.548 79.5679 32.872 79.1599 33.136C78.7519 33.392 78.3239 33.6 77.8759 33.76C77.4359 33.912 76.9839 34.02 76.5199 34.084C76.0639 34.148 75.6199 34.18 75.1879 34.18C74.3319 34.18 73.5359 34.04 72.7999 33.76C72.0639 33.472 71.4239 33.052 70.8799 32.5C70.3359 31.94 69.9079 31.252 69.5959 30.436C69.2839 29.612 69.1279 28.66 69.1279 27.58C69.1279 26.74 69.2639 25.952 69.5359 25.216C69.8079 24.472 70.1959 23.828 70.6999 23.284C71.2119 22.732 71.8319 22.296 72.5599 21.976C73.2959 21.656 74.1239 21.496 75.0439 21.496C75.8199 21.496 76.5359 21.62 77.1919 21.868C77.8479 22.116 78.4119 22.48 78.8839 22.96C79.3559 23.432 79.7239 24.016 79.9879 24.712C80.2599 25.4 80.3959 26.188 80.3959 27.076C80.3959 27.524 80.3479 27.828 80.2519 27.988C80.1559 28.14 79.9719 28.216 79.6999 28.216H72.0799ZM83.2968 34V23.92L82.2288 23.752C81.9968 23.704 81.8088 23.624 81.6648 23.512C81.5288 23.392 81.4608 23.224 81.4608 23.008V21.796H83.2968V20.884C83.2968 20.18 83.4008 19.548 83.6088 18.988C83.8248 18.428 84.1288 17.952 84.5208 17.56C84.9208 17.168 85.4048 16.868 85.9728 16.66C86.5408 16.452 87.1808 16.348 87.8928 16.348C88.4608 16.348 88.9888 16.424 89.4768 16.576L89.4168 18.064C89.4088 18.176 89.3768 18.268 89.3208 18.34C89.2648 18.404 89.1888 18.456 89.0928 18.496C89.0048 18.528 88.9008 18.552 88.7808 18.568C88.6608 18.576 88.5328 18.58 88.3968 18.58C88.0448 18.58 87.7288 18.62 87.4488 18.7C87.1768 18.772 86.9448 18.904 86.7528 19.096C86.5608 19.28 86.4128 19.528 86.3088 19.84C86.2128 20.144 86.1648 20.524 86.1648 20.98V21.796H89.3688V23.908H86.2608V34H83.2968ZM98.6382 26.428C98.6382 26.044 98.5822 25.684 98.4702 25.348C98.3662 25.004 98.2062 24.704 97.9902 24.448C97.7742 24.192 97.4982 23.992 97.1622 23.848C96.8342 23.696 96.4502 23.62 96.0102 23.62C95.1542 23.62 94.4782 23.864 93.9822 24.352C93.4942 24.84 93.1822 25.532 93.0462 26.428H98.6382ZM92.9862 28.216C93.0342 28.848 93.1462 29.396 93.3222 29.86C93.4982 30.316 93.7302 30.696 94.0182 31C94.3062 31.296 94.6462 31.52 95.0382 31.672C95.4382 31.816 95.8782 31.888 96.3582 31.888C96.8382 31.888 97.2502 31.832 97.5942 31.72C97.9462 31.608 98.2502 31.484 98.5062 31.348C98.7702 31.212 98.9982 31.088 99.1902 30.976C99.3902 30.864 99.5822 30.808 99.7662 30.808C100.014 30.808 100.198 30.9 100.318 31.084L101.17 32.164C100.842 32.548 100.474 32.872 100.066 33.136C99.6582 33.392 99.2302 33.6 98.7822 33.76C98.3422 33.912 97.8902 34.02 97.4262 34.084C96.9702 34.148 96.5262 34.18 96.0942 34.18C95.2382 34.18 94.4422 34.04 93.7062 33.76C92.9702 33.472 92.3302 33.052 91.7862 32.5C91.2422 31.94 90.8142 31.252 90.5022 30.436C90.1902 29.612 90.0342 28.66 90.0342 27.58C90.0342 26.74 90.1702 25.952 90.4422 25.216C90.7142 24.472 91.1022 23.828 91.6062 23.284C92.1182 22.732 92.7382 22.296 93.4662 21.976C94.2022 21.656 95.0302 21.496 95.9502 21.496C96.7262 21.496 97.4422 21.62 98.0982 21.868C98.7542 22.116 99.3182 22.48 99.7902 22.96C100.262 23.432 100.63 24.016 100.894 24.712C101.166 25.4 101.302 26.188 101.302 27.076C101.302 27.524 101.254 27.828 101.158 27.988C101.062 28.14 100.878 28.216 100.606 28.216H92.9862ZM106.323 23.824C106.707 23.088 107.163 22.512 107.691 22.096C108.219 21.672 108.843 21.46 109.562 21.46C110.131 21.46 110.587 21.584 110.931 21.832L110.739 24.052C110.699 24.196 110.639 24.3 110.559 24.364C110.487 24.42 110.387 24.448 110.259 24.448C110.139 24.448 109.959 24.428 109.719 24.388C109.487 24.348 109.259 24.328 109.035 24.328C108.707 24.328 108.415 24.376 108.159 24.472C107.903 24.568 107.671 24.708 107.463 24.892C107.263 25.068 107.083 25.284 106.923 25.54C106.771 25.796 106.627 26.088 106.491 26.416V34H103.527V21.688H105.267C105.571 21.688 105.783 21.744 105.903 21.856C106.023 21.96 106.103 22.152 106.143 22.432L106.323 23.824ZM118.82 28.744C117.964 28.784 117.244 28.86 116.66 28.972C116.076 29.076 115.608 29.212 115.256 29.38C114.904 29.548 114.652 29.744 114.5 29.968C114.348 30.192 114.272 30.436 114.272 30.7C114.272 31.22 114.424 31.592 114.728 31.816C115.04 32.04 115.444 32.152 115.94 32.152C116.548 32.152 117.072 32.044 117.512 31.828C117.96 31.604 118.396 31.268 118.82 30.82V28.744ZM112.028 23.404C113.444 22.108 115.148 21.46 117.14 21.46C117.86 21.46 118.504 21.58 119.072 21.82C119.64 22.052 120.12 22.38 120.512 22.804C120.904 23.22 121.2 23.72 121.4 24.304C121.608 24.888 121.712 25.528 121.712 26.224V34H120.368C120.088 34 119.872 33.96 119.72 33.88C119.568 33.792 119.448 33.62 119.36 33.364L119.096 32.476C118.784 32.756 118.48 33.004 118.184 33.22C117.888 33.428 117.58 33.604 117.26 33.748C116.94 33.892 116.596 34 116.228 34.072C115.868 34.152 115.468 34.192 115.028 34.192C114.508 34.192 114.028 34.124 113.588 33.988C113.148 33.844 112.768 33.632 112.448 33.352C112.128 33.072 111.88 32.724 111.704 32.308C111.528 31.892 111.44 31.408 111.44 30.856C111.44 30.544 111.492 30.236 111.596 29.932C111.7 29.62 111.868 29.324 112.1 29.044C112.34 28.764 112.648 28.5 113.024 28.252C113.4 28.004 113.86 27.788 114.404 27.604C114.956 27.42 115.596 27.272 116.324 27.16C117.052 27.04 117.884 26.968 118.82 26.944V26.224C118.82 25.4 118.644 24.792 118.292 24.4C117.94 24 117.432 23.8 116.768 23.8C116.288 23.8 115.888 23.856 115.568 23.968C115.256 24.08 114.98 24.208 114.74 24.352C114.5 24.488 114.28 24.612 114.08 24.724C113.888 24.836 113.672 24.892 113.432 24.892C113.224 24.892 113.048 24.84 112.904 24.736C112.76 24.624 112.644 24.496 112.556 24.352L112.028 23.404ZM127.575 21.688V34H124.599V21.688H127.575ZM127.983 18.1C127.983 18.356 127.931 18.596 127.827 18.82C127.723 19.044 127.583 19.24 127.407 19.408C127.239 19.576 127.039 19.712 126.807 19.816C126.575 19.912 126.327 19.96 126.063 19.96C125.807 19.96 125.563 19.912 125.331 19.816C125.107 19.712 124.911 19.576 124.743 19.408C124.575 19.24 124.439 19.044 124.335 18.82C124.239 18.596 124.191 18.356 124.191 18.1C124.191 17.836 124.239 17.588 124.335 17.356C124.439 17.124 124.575 16.924 124.743 16.756C124.911 16.588 125.107 16.456 125.331 16.36C125.563 16.256 125.807 16.204 126.063 16.204C126.327 16.204 126.575 16.256 126.807 16.36C127.039 16.456 127.239 16.588 127.407 16.756C127.583 16.924 127.723 17.124 127.827 17.356C127.931 17.588 127.983 17.836 127.983 18.1ZM133.393 23.824C133.777 23.088 134.233 22.512 134.761 22.096C135.289 21.672 135.913 21.46 136.633 21.46C137.201 21.46 137.657 21.584 138.001 21.832L137.809 24.052C137.769 24.196 137.709 24.3 137.629 24.364C137.557 24.42 137.457 24.448 137.329 24.448C137.209 24.448 137.029 24.428 136.789 24.388C136.557 24.348 136.329 24.328 136.105 24.328C135.777 24.328 135.485 24.376 135.229 24.472C134.973 24.568 134.741 24.708 134.533 24.892C134.333 25.068 134.153 25.284 133.993 25.54C133.841 25.796 133.697 26.088 133.561 26.416V34H130.597V21.688H132.337C132.641 21.688 132.853 21.744 132.973 21.856C133.093 21.96 133.173 22.152 133.213 22.432L133.393 23.824Z" fill="black"></path><g clip-path="url(#clip0_4_342)"><path d="M15.8975 2.00028V2.00031L15.9093 2.00028L16 2C16.001 2 16.0019 2 16.0029 2C23.7335 2.00155 30 8.26897 30 16V33C30 40.732 23.732 47 16 47C8.26801 47 2 40.732 2 33V32.8693V16V15.8074C2 8.18273 8.18022 2.00156 15.8045 2C15.8055 2 15.8064 2 15.8074 2L15.8975 2.00028Z" stroke="black" stroke-width="4"></path><circle cx="15.7951" cy="10.8136" r="1.75638" transform="rotate(-90 15.7951 10.8136)" fill="black"></circle><path d="M11.7326 34.4688C11.7595 34.3411 11.8518 34.237 11.9753 34.1951L15.5534 32.9797C15.6301 32.9537 15.7133 32.9536 15.79 32.9794L19.4117 34.1967C19.5337 34.2378 19.6256 34.3394 19.6543 34.4649L20.2418 37.0429C20.3034 37.3134 20.0563 37.5528 19.788 37.4826L15.7662 36.4312C15.7042 36.415 15.6392 36.4151 15.5773 36.4317L11.6457 37.4815C11.3795 37.5526 11.1319 37.3178 11.1888 37.0482L11.7326 34.4688Z" fill="black"></path><path fill-rule="evenodd" clip-rule="evenodd" d="M14.1734 18.341C14.1734 17.4656 14.883 16.756 15.7584 16.756C16.6338 16.756 17.3434 17.4656 17.3434 18.341V24.5348L17.3231 24.5241C17.038 24.3729 16.7235 24.5156 16.6591 24.8253L16.1522 27.2603C16.094 27.5401 16.265 27.8447 16.5341 27.9407L17.3434 28.2293V34.8705H14.1734V28.2711C14.3485 28.2086 14.3017 27.7228 14.2376 26.1933C14.1734 24.6637 14.1734 25.0273 14.1734 24.5241V18.341ZM14.1734 24.5241V28.2711L8.23612 30.4018C7.89443 30.5236 7.58473 30.2517 7.63787 29.8764L7.86735 28.256C7.89466 28.0631 8.01542 27.8888 8.18343 27.7997L14.1734 24.5241ZM17.3434 28.2293L23.4769 30.4169C23.8186 30.5388 24.1283 30.2668 24.0751 29.8915L23.8456 28.2711C23.8183 28.0782 23.6976 27.9039 23.5296 27.8148L17.3434 24.5348V28.2293Z" fill="black"></path><path d="M16.6591 24.8253L16.1522 27.2603C16.094 27.5401 16.265 27.8447 16.5341 27.9407L17.3434 28.2293V24.5348L17.3231 24.5241C17.038 24.3729 16.7235 24.5156 16.6591 24.8253Z" fill="black"></path><path d="M14.1734 24.5241V28.2711C14.3485 28.2086 14.3017 27.7228 14.2376 26.1933C14.1734 24.6637 14.1734 25.0273 14.1734 24.5241Z" fill="black"></path></g><defs><clipPath id="clip0_4_342"><rect width="31.6148" height="48.6767" fill="black"></rect></clipPath></defs></svg>