<svg xmlns="http://www.w3.org/2000/svg" width="32" height="49" viewBox="0 0 32 49" fill="none">
<g clip-path="url(#clip0_4_344)">
<path d="M15.8975 2.00028V2.00031L15.9093 2.00028L16 2C16.001 2 16.0019 2 16.0029 2C23.7335 2.00155 30 8.26897 30 16V33C30 40.732 23.732 47 16 47C8.26801 47 2 40.732 2 33V32.8693V16V15.8074C2 8.18273 8.18022 2.00156 15.8045 2C15.8055 2 15.8064 2 15.8074 2L15.8975 2.00028Z" stroke="white" stroke-width="4"/>
<circle cx="15.7951" cy="10.8136" r="1.75638" transform="rotate(-90 15.7951 10.8136)" fill="white"/>
<path d="M11.7326 34.4688C11.7595 34.3411 11.8518 34.237 11.9753 34.1951L15.5534 32.9797C15.6301 32.9537 15.7133 32.9536 15.79 32.9794L19.4117 34.1967C19.5337 34.2378 19.6256 34.3394 19.6543 34.4649L20.2418 37.0429C20.3034 37.3134 20.0563 37.5528 19.788 37.4826L15.7662 36.4312C15.7042 36.415 15.6392 36.4151 15.5773 36.4317L11.6457 37.4815C11.3795 37.5526 11.1319 37.3178 11.1888 37.0482L11.7326 34.4688Z" fill="white"/>
<path fill-rule="evenodd" clip-rule="evenodd" d="M14.1734 18.341C14.1734 17.4656 14.883 16.756 15.7584 16.756C16.6338 16.756 17.3434 17.4656 17.3434 18.341V24.5348L17.3231 24.5241C17.038 24.3729 16.7235 24.5156 16.6591 24.8253L16.1522 27.2603C16.094 27.5401 16.265 27.8447 16.5341 27.9407L17.3434 28.2293V34.8705H14.1734V28.2711C14.3485 28.2086 14.3017 27.7228 14.2376 26.1933C14.1734 24.6637 14.1734 25.0273 14.1734 24.5241V18.341ZM14.1734 24.5241V28.2711L8.23612 30.4018C7.89443 30.5236 7.58473 30.2517 7.63787 29.8764L7.86735 28.256C7.89466 28.0631 8.01542 27.8888 8.18343 27.7997L14.1734 24.5241ZM17.3434 28.2293L23.4769 30.4169C23.8186 30.5388 24.1283 30.2668 24.0751 29.8915L23.8456 28.2711C23.8183 28.0782 23.6976 27.9039 23.5296 27.8148L17.3434 24.5348V28.2293Z" fill="white"/>
<path d="M16.6591 24.8253L16.1522 27.2603C16.094 27.5401 16.265 27.8447 16.5341 27.9407L17.3434 28.2293V24.5348L17.3231 24.5241C17.038 24.3729 16.7235 24.5156 16.6591 24.8253Z" fill="white"/>
<path d="M14.1734 24.5241V28.2711C14.3485 28.2086 14.3017 27.7228 14.2376 26.1933C14.1734 24.6637 14.1734 25.0273 14.1734 24.5241Z" fill="white"/>
</g>
<defs>
<clipPath id="clip0_4_344">
<rect width="31.6148" height="48.6767" fill="white"/>
</clipPath>
</defs>
</svg>